<svg width="87" height="80" viewBox="0 0 87 80" fill="none" xmlns="http://www.w3.org/2000/svg">
<path fill-rule="evenodd" clip-rule="evenodd" d="M85.5129 0.291526C85.1083 0.00230384 84.5929 -0.0792324 84.1268 0.080763L56.9214 9.14973L29.7161 0.080763C29.5638 0.0299952 29.4068 0.00691854 29.2484 0.00538012C29.2422 0.00538012 29.2361 0.00230351 29.2299 0.00230351C29.2238 0.00230351 29.2176 0.00538012 29.2115 0.00538012C29.053 0.00691854 28.8946 0.0315336 28.7438 0.080763L1.05228 9.31126C0.423065 9.52203 0 10.1082 0 10.7712V78.4616C0 78.9554 0.236916 79.42 0.638443 79.7108C0.904589 79.9015 1.21996 80 1.53842 80C1.70149 80 1.8661 79.9738 2.02456 79.92L29.2299 70.8526L56.4353 79.9215C56.5876 79.9723 56.7445 79.9954 56.903 79.9969C56.9091 79.9969 56.9153 80 56.9214 80C56.9276 80 56.9337 79.9969 56.9399 79.9969C57.0984 79.9954 57.2553 79.9708 57.4076 79.9215L85.0991 70.691C85.7268 70.4818 86.1514 69.8941 86.1514 69.2326V1.54226C86.1514 1.04689 85.9144 0.582287 85.5129 0.291526ZM83.0745 25.0477L58.4599 33.2521V11.8789L83.0745 3.67451V25.0477ZM3.07683 42.6472L9.9674 40.3504C16.8887 38.0443 21.5378 31.5922 21.5378 24.2955V5.72522L27.6915 3.67451V49.6624L3.07683 57.8668V42.6472ZM55.383 33.166L49.3109 30.8891C47.8986 30.3584 46.3064 30.5537 45.0618 31.4183C43.8172 32.2798 43.0757 33.6967 43.0757 35.2105V53.7638L30.7683 49.6624V3.67451L55.383 11.8789V33.166ZM30.7683 52.9039L43.0757 57.0053V72.2248L30.7683 68.1219V52.9039ZM46.1525 35.2105C46.1525 34.6982 46.3925 34.2382 46.814 33.9475C47.2356 33.6552 47.7509 33.5921 48.2325 33.7721L55.383 36.4536V76.3293L46.1525 73.2525V35.2105ZM18.461 6.75134V24.297C18.461 30.266 14.655 35.5459 8.99359 37.4335L3.07683 39.4058V11.8804L18.461 6.75134ZM3.07683 61.1082L27.6915 52.9039V68.1234L3.07683 76.3278V61.1082ZM58.4599 76.3278V36.4936L83.0745 28.2892V68.1219L58.4599 76.3278Z" fill="white"/>
</svg>
